<svg width="26" height="26" viewBox="0 0 26 26" fill="none" xmlns="http://www.w3.org/2000/svg">
<path fill-rule="evenodd" clip-rule="evenodd" d="M15.1427 1.85714C15.1427 1.3646 14.952 0.892226 14.6127 0.543945C14.2733 0.195663 13.8131 0 13.3332 0C12.8533 0 12.393 0.195663 12.0536 0.543945C11.7143 0.892226 11.5236 1.3646 11.5236 1.85714V14.2381C11.5236 14.7306 11.7143 15.203 12.0536 15.5513C12.393 15.8996 12.8533 16.0952 13.3332 16.0952C13.8131 16.0952 14.2733 15.8996 14.6127 15.5513C14.952 15.203 15.1427 14.7306 15.1427 14.2381V1.85714ZM8.33165 5.2619C8.52967 5.12687 8.69984 4.95314 8.83245 4.75061C8.96505 4.54808 9.05749 4.32073 9.10448 4.08154C9.15147 3.84235 9.1521 3.59601 9.10633 3.35657C9.06055 3.11713 8.96928 2.88928 8.83771 2.68605C8.70614 2.48281 8.53686 2.30816 8.33953 2.17207C8.14219 2.03598 7.92067 1.94111 7.68762 1.89288C7.45456 1.84465 7.21453 1.84401 6.98123 1.89098C6.74793 1.93796 6.52593 2.03164 6.3279 2.16667C4.58607 3.35228 3.15742 4.96214 2.16953 6.85251C1.18165 8.74287 0.665267 10.8549 0.666506 13C0.666506 20.1797 6.33755 26 13.3332 26C20.3288 26 25.9998 20.1797 25.9998 13C25.9998 8.476 23.7476 4.49429 20.3384 2.16667C19.9385 1.89413 19.4495 1.7958 18.9789 1.89332C18.5083 1.99084 18.0948 2.27621 17.8292 2.68667C17.5637 3.09712 17.4679 3.59903 17.5629 4.08198C17.6579 4.56493 17.936 4.98936 18.3359 5.2619C19.9555 6.36461 21.1861 7.97328 21.8455 9.84974C22.5048 11.7262 22.5579 13.7707 21.9968 15.6805C21.4357 17.5904 20.2902 19.264 18.7301 20.4536C17.1699 21.6432 15.278 22.2855 13.3344 22.2855C11.3908 22.2855 9.49883 21.6432 7.93867 20.4536C6.37852 19.264 5.23309 17.5904 4.67199 15.6805C4.11088 13.7707 4.16393 11.7262 4.82328 9.84974C5.48263 7.97328 6.71201 6.36461 8.33165 5.2619Z" fill="#BD8200"/>
</svg>
